<svg width="74" height="71" viewBox="0 0 74 71" fill="none" xmlns="http://www.w3.org/2000/svg">
    <path
        d="M57.932 63.0949L57.9363 63.1126L57.9403 63.1303L57.9409 63.1328L57.9411 63.1338C57.9969 63.3827 58.2553 64.5376 57.3742 65.6448C57.3731 65.6461 57.3721 65.6475 57.371 65.6488C56.5408 66.6905 54.9032 67.301 53.4152 66.3833L53.4142 66.3827L36.682 56.0506L19.9355 66.3919C19.4963 66.6676 18.9544 66.871 18.328 66.871C17.3538 66.871 16.4779 66.38 15.9336 65.6764L57.932 63.0949ZM57.932 63.0949L53.278 44.0206M57.932 63.0949L53.278 44.0206M6.79554 25.9864L6.82049 25.9845L26.481 24.5206L33.8636 6.383L33.8715 6.36345L33.8799 6.34407C34.5816 4.71926 36.0794 4.488 36.716 4.488C37.0729 4.488 37.6002 4.54481 38.1421 4.83001C38.7262 5.13745 39.2006 5.64548 39.4764 6.32047L39.4775 6.32307L46.8841 24.5216L66.5462 25.9864L6.79554 25.9864ZM6.79554 25.9864L6.77065 25.9889M6.79554 25.9864L6.77065 25.9889M6.77065 25.9889C5.0246 26.1629 4.33863 27.5145 4.14407 28.1416C4.03267 28.5001 3.93808 29.029 4.06505 29.6365C4.19924 30.2786 4.54975 30.8544 5.08119 31.3015C5.08302 31.3031 5.08485 31.3046 5.08668 31.3061L20.088 44.0206L15.4272 63.1229M6.77065 25.9889L15.4272 63.1229M53.278 44.0206L68.2675 31.3161C68.269 31.3149 68.2704 31.3137 68.2719 31.3125C69.6199 30.1779 69.4087 28.6961 69.2073 28.0698C69.0901 27.7046 68.8587 27.206 68.3953 26.7736C67.9032 26.3143 67.2654 26.0396 66.5486 25.9865L53.278 44.0206ZM15.4272 63.1229C15.2122 63.9756 15.3249 64.8897 15.932 65.6744L15.4272 63.1229ZM66.6955 23.9907L66.6925 23.9905L49.5045 22.7105L48.2679 22.6184L47.8005 21.4699L41.3305 5.5719L41.3296 5.56964C40.5718 3.70109 38.7721 2.487 36.716 2.487C34.653 2.487 32.8813 3.6336 32.0277 5.58946L25.5634 21.4691L25.096 22.6173L23.8596 22.7095L6.62825 23.9936C4.54703 24.2049 2.83496 25.6081 2.23371 27.5519L66.6955 23.9907ZM66.6955 23.9907C68.751 24.1406 70.4787 25.4973 71.1099 27.4509C71.7432 29.413 71.1353 31.521 69.564 32.8384L69.5559 32.8453L56.4559 43.9483L55.513 44.7474M66.6955 23.9907L55.513 44.7474M3.79826 32.8343L3.79824 32.8344L16.9082 43.9474L17.8509 44.7464L17.558 45.947L13.49 62.623L13.4872 62.6345L13.4843 62.646C13.0974 64.1541 13.4177 65.696 14.3542 66.903L14.3547 66.9037C15.3119 68.1385 16.8075 68.87 18.327 68.87C19.2503 68.87 20.1776 68.6017 20.9857 68.0937L20.9924 68.0895L20.9992 68.0853L35.6312 59.0503L36.682 58.4014L37.7328 59.0503L52.3648 68.0853L52.3654 68.0857C53.1661 68.5805 54.0652 68.835 54.963 68.835C56.468 68.835 57.9669 68.113 58.9386 66.8922L3.79826 32.8343ZM3.79826 32.8343L3.78957 32.8271M3.79826 32.8343L3.78957 32.8271M3.78957 32.8271C2.22086 31.5125 1.62809 29.5102 2.2337 27.552L3.78957 32.8271ZM55.513 44.7474L55.806 45.9481M55.513 44.7474L55.806 45.9481M55.806 45.9481L59.8798 62.645M55.806 45.9481L59.8798 62.645M59.8798 62.645C60.2316 64.1835 59.8792 65.709 58.939 66.8917L59.8798 62.645ZM49.7489 41.7683L48.806 42.5674L49.099 43.7681L53.4797 61.722L37.7328 51.9983L36.682 51.3494L35.6312 51.9983L19.8866 61.7209L24.267 43.7681L24.56 42.5674L23.6171 41.7683L9.49219 29.7967L28.0145 28.4175L29.251 28.3254L29.7184 27.177L36.6827 10.0672L43.6465 27.1779L44.1139 28.3264L45.3504 28.4185L63.872 29.7982L49.7489 41.7683ZM65.3998 29.2957C65.3997 29.2953 65.3996 29.295 65.3995 29.2947C65.3994 29.2946 65.3994 29.2944 65.3993 29.2943L65.3998 29.2957Z"
        stroke="white" stroke-width="4" />
</svg>