<svg width="451" height="461" viewBox="0 0 451 461" fill="none" xmlns="http://www.w3.org/2000/svg">
	<path
		d="M439.396 167.33L244.284 6.831C238.747 2.277 231.986 0 225.225 0C218.464 0 211.703 2.277 206.167 6.831L146.76 55.699V46.34C146.76 38.056 140.044 31.34 131.76 31.34H59.81C51.526 31.34 44.81 38.056 44.81 46.34V139.563L11.055 167.33C1.274 175.376 -2.401 188.699 1.873 200.621C5.584 210.975 14.596 218.336 25.198 220.094V430.45C25.198 447.019 38.63 460.45 55.198 460.45H158.641C175.209 460.45 188.641 447.019 188.641 430.45V353.976C188.641 348.66 190.938 345.491 192.009 344.68H258.441C259.512 345.491 261.809 348.66 261.809 353.976V430.45C261.809 447.019 275.24 460.45 291.809 460.45H395.252C411.821 460.45 425.252 447.019 425.252 430.45V220.095C435.855 218.338 444.866 210.976 448.577 200.622C452.852 188.699 449.177 175.377 439.396 167.33ZM74.81 61.341H116.76V80.378L74.81 114.886V61.341ZM395.253 190.499V430.451H291.809V353.977C291.809 332.274 277.116 314.681 258.991 314.681H191.46C173.335 314.681 158.642 332.275 158.642 353.977V430.451H55.198V190.499H30.113L225.225 30L420.337 190.499H395.253Z"
		fill="white" />
</svg>