<svg width="76" height="76" viewBox="0 0 76 76" fill="none" xmlns="http://www.w3.org/2000/svg">
	<g clip-path="url(#clip0_1_2)">
		<path
			d="M38 0C58.9868 0 76 17.0132 76 38C76 58.9868 58.9868 76 38 76C17.0132 76 0 58.9868 0 38C0 17.0132 17.0132 0 38 0ZM38 7.9166C22.455 7.9166 9.6638 19.7072 8.0814 34.8334H22.4834C23.9504 27.6062 30.34 22.1666 38 22.1666C45.66 22.1666 52.0496 27.6062 53.5166 34.8334H67.9186C66.3362 19.7072 53.545 7.9166 38 7.9166ZM8.0814 41.1666C9.6638 56.2928 22.455 68.0834 38 68.0834C53.545 68.0834 66.3362 56.2928 67.9186 41.1666L53.5166 41.1668C52.0496 48.3938 45.66 53.8334 38 53.8334C30.34 53.8334 23.9504 48.3938 22.4834 41.1668L8.0814 41.1666ZM38 28.5C32.7532 28.5 28.5 32.7534 28.5 38C28.5 43.2468 32.7532 47.5 38 47.5C43.2466 47.5 47.5 43.2468 47.5 38C47.5 32.7534 43.2466 28.5 38 28.5ZM38 33.25C40.6234 33.25 42.75 35.3766 42.75 38C42.75 40.6234 40.6234 42.75 38 42.75C35.3766 42.75 33.25 40.6234 33.25 38C33.25 35.3766 35.3766 33.25 38 33.25Z"
			fill="white" />
	</g>
	<defs>
		<clipPath id="clip0_1_2">
			<rect width="76" height="76" fill="white" />
		</clipPath>
	</defs>
</svg>