<svg width="218" height="255" viewBox="0 0 218 255" fill="none" xmlns="http://www.w3.org/2000/svg">
	<path
		d="M112 25C91 68.9512 87 103.854 37 131C87 158.146 91 193.049 112 237C133 193.049 137 158.146 187 131C137 103.854 133 68.9512 112 25Z"
		stroke="#ECCC59" stroke-width="15" />
	<path
		d="M192.5 5C186.76 17.0244 185.667 26.5732 172 34C185.667 41.4268 186.76 50.9756 192.5 63C198.24 50.9756 199.333 41.4268 213 34C199.333 26.5732 198.24 17.0244 192.5 5Z"
		stroke="#ECCC59" stroke-width="4" />
	<path
		d="M30.5 173C23.36 187.305 22 198.665 5 207.5C22 216.335 23.36 227.695 30.5 242C37.64 227.695 39 216.335 56 207.5C39 198.665 37.64 187.305 30.5 173Z"
		stroke="#ECCC59" stroke-width="4" />
</svg>