<svg width="74" height="71" viewBox="0 0 74 71" fill="none" xmlns="http://www.w3.org/2000/svg">
	<path
		d="M73.013 26.836C72.131 24.106 69.707 22.205 66.841 21.996L49.653 20.716L43.183 4.818C42.116 2.187 39.578 0.487 36.716 0.487C33.841 0.487 31.348 2.122 30.184 4.814L23.711 20.715L6.455 22.001C3.575 22.282 1.168 24.229 0.323001 26.961C-0.520999 29.69 0.320001 32.529 2.505 34.36L15.615 45.473L11.547 62.149C11.008 64.25 11.455 66.429 12.774 68.129C14.105 69.846 16.181 70.87 18.327 70.87C18.327 70.87 18.327 70.87 18.328 70.87C19.636 70.87 20.93 70.491 22.05 69.787L36.682 60.752L51.314 69.787C52.424 70.473 53.686 70.835 54.963 70.835C57.089 70.835 59.16 69.826 60.504 68.137C61.832 66.467 62.317 64.311 61.826 62.184L57.749 45.474L70.849 34.371C73.046 32.529 73.896 29.571 73.013 26.836ZM66.982 29.784L51.042 43.294L55.989 63.569C56.015 63.685 56.097 64.039 55.808 64.401C55.484 64.809 54.932 64.969 54.465 64.681L36.682 53.7L18.877 64.695C18.689 64.814 18.509 64.871 18.328 64.871C18.027 64.871 17.715 64.711 17.515 64.452C17.331 64.215 17.28 63.949 17.368 63.606L22.324 43.294L6.371 29.773C5.952 29.422 5.967 29.015 6.054 28.735C6.133 28.479 6.367 28.039 6.969 27.979L27.866 26.423L35.716 7.137C35.96 6.572 36.447 6.488 36.716 6.488C37.022 6.488 37.426 6.59 37.625 7.077L45.499 26.424L66.4 27.981C66.973 28.023 67.208 28.385 67.303 28.681C67.382 28.925 67.448 29.393 66.982 29.784Z"
		fill="#F1C93B" />
</svg>